<svg width="353" height="40" viewBox="0 0 353 40" fill="none" xmlns="http://www.w3.org/2000/svg">
<circle cx="20" cy="20" r="20" fill="#000B30"/>
<circle cx="49" cy="20" r="20" fill="#808598"/>
<circle cx="77" cy="20" r="20" fill="#CCCED6"/>
<path d="M120.424 30V12.016H114.024V7.6H131.448V12.016H125.032V30H120.424ZM129.892 30L138.628 7.6H143.012L151.764 30H146.756L145.044 25.504H136.58L134.9 30H129.892ZM138.116 21.264H143.492L141.46 16.032C141.396 15.872 141.322 15.6907 141.236 15.488C141.151 15.2747 141.071 15.0613 140.996 14.848C140.922 14.6347 140.858 14.4427 140.804 14.272C140.751 14.4427 140.687 14.6347 140.612 14.848C140.538 15.0613 140.458 15.2747 140.372 15.488C140.287 15.6907 140.212 15.872 140.148 16.032L138.116 21.264ZM161.704 30.384C160.275 30.384 158.974 30.128 157.8 29.616C156.627 29.104 155.619 28.3733 154.776 27.424C153.944 26.4747 153.31 25.344 152.872 24.032L157 22.48C157.491 23.5253 158.158 24.384 159 25.056C159.843 25.7173 160.782 26.048 161.816 26.048C162.883 26.048 163.736 25.8347 164.376 25.408C165.016 24.9813 165.336 24.3627 165.336 23.552C165.336 22.9973 165.15 22.5387 164.776 22.176C164.403 21.8133 163.891 21.4987 163.24 21.232C162.59 20.9547 161.843 20.6773 161 20.4C160.168 20.1227 159.326 19.8187 158.472 19.488C157.619 19.1467 156.835 18.7253 156.12 18.224C155.406 17.7227 154.83 17.088 154.392 16.32C153.966 15.5413 153.752 14.5813 153.752 13.44C153.752 12.3093 154.051 11.2747 154.648 10.336C155.256 9.38667 156.131 8.62933 157.272 8.064C158.424 7.49867 159.816 7.216 161.448 7.216C162.792 7.216 163.987 7.456 165.032 7.936C166.078 8.40533 166.942 9.04533 167.624 9.856C168.307 10.6667 168.787 11.5787 169.064 12.592L164.968 13.952C164.659 13.2693 164.211 12.6987 163.624 12.24C163.048 11.7813 162.243 11.552 161.208 11.552C160.291 11.552 159.582 11.7227 159.08 12.064C158.59 12.3947 158.344 12.88 158.344 13.52C158.344 13.936 158.51 14.2933 158.84 14.592C159.182 14.88 159.646 15.1413 160.232 15.376C160.83 15.6107 161.512 15.8613 162.28 16.128C163.198 16.4373 164.11 16.7787 165.016 17.152C165.923 17.5253 166.744 17.984 167.48 18.528C168.227 19.072 168.819 19.7493 169.256 20.56C169.704 21.3707 169.928 22.3733 169.928 23.568C169.928 25.008 169.566 26.2347 168.84 27.248C168.115 28.2613 167.128 29.04 165.88 29.584C164.643 30.1173 163.251 30.384 161.704 30.384ZM173.934 30V7.6H178.542V18.24L186.958 7.6H192.462L185.838 15.68L193.742 30H188.366L182.734 19.552L178.542 24.784V30H173.934ZM210.674 30V12.016H204.274V7.6H221.698V12.016H215.282V30H210.674ZM225.152 30V7.6H235.808C237.686 7.6 239.174 7.93067 240.272 8.592C241.382 9.24267 242.171 10.112 242.64 11.2C243.12 12.2773 243.36 13.4453 243.36 14.704C243.36 15.5467 243.2 16.4 242.88 17.264C242.571 18.128 242.102 18.9173 241.472 19.632C240.843 20.336 240.064 20.8587 239.136 21.2L243.424 30H238.272L234.144 21.888H229.76V30H225.152ZM229.76 17.552H235.872C236.555 17.552 237.094 17.4187 237.488 17.152C237.894 16.8853 238.176 16.5387 238.336 16.112C238.507 15.6747 238.592 15.2107 238.592 14.72C238.592 14.272 238.512 13.8347 238.352 13.408C238.203 12.9813 237.926 12.6293 237.52 12.352C237.126 12.0747 236.576 11.936 235.872 11.936H229.76V17.552ZM245.392 30L254.128 7.6H258.512L267.264 30H262.256L260.544 25.504H252.08L250.4 30H245.392ZM253.616 21.264H258.992L256.96 16.032C256.896 15.872 256.822 15.6907 256.736 15.488C256.651 15.2747 256.571 15.0613 256.496 14.848C256.422 14.6347 256.358 14.4427 256.304 14.272C256.251 14.4427 256.187 14.6347 256.112 14.848C256.038 15.0613 255.958 15.2747 255.872 15.488C255.787 15.6907 255.712 15.872 255.648 16.032L253.616 21.264ZM277.885 30.336C276.125 30.336 274.643 30 273.437 29.328C272.232 28.656 271.261 27.7653 270.525 26.656C269.789 25.536 269.256 24.2987 268.925 22.944C268.605 21.5787 268.445 20.1973 268.445 18.8C268.445 17.4987 268.611 16.1707 268.941 14.816C269.283 13.4613 269.821 12.208 270.557 11.056C271.293 9.904 272.264 8.976 273.469 8.272C274.675 7.568 276.147 7.216 277.885 7.216C279.304 7.216 280.552 7.46667 281.629 7.968C282.707 8.46933 283.603 9.12 284.317 9.92C285.043 10.7093 285.587 11.5467 285.949 12.432L281.853 14.288C281.48 13.7333 281.107 13.2587 280.733 12.864C280.36 12.4693 279.944 12.1653 279.485 11.952C279.027 11.7387 278.493 11.632 277.885 11.632C277 11.632 276.259 11.8507 275.661 12.288C275.064 12.7253 274.584 13.3013 274.221 14.016C273.869 14.7307 273.613 15.5093 273.453 16.352C273.293 17.184 273.213 18 273.213 18.8C273.213 19.632 273.304 20.4693 273.485 21.312C273.667 22.1547 273.944 22.9227 274.317 23.616C274.691 24.3093 275.171 24.8693 275.757 25.296C276.355 25.712 277.064 25.92 277.885 25.92C278.739 25.92 279.48 25.6533 280.109 25.12C280.739 24.576 281.309 23.8827 281.821 23.04L286.013 24.624C285.501 25.7227 284.872 26.704 284.125 27.568C283.379 28.432 282.488 29.1093 281.453 29.6C280.429 30.0907 279.24 30.336 277.885 30.336ZM289.34 30V7.6H293.948V18.24L302.364 7.6H307.868L301.244 15.68L309.148 30H303.772L298.14 19.552L293.948 24.784V30H289.34ZM312.496 30V7.6H328.24V11.968H317.104V16.256H323.456V20.624H317.104V25.6H328.896V30H312.496ZM332.652 30V7.6H343.308C345.186 7.6 346.674 7.93067 347.772 8.592C348.882 9.24267 349.671 10.112 350.14 11.2C350.62 12.2773 350.86 13.4453 350.86 14.704C350.86 15.5467 350.7 16.4 350.38 17.264C350.071 18.128 349.602 18.9173 348.972 19.632C348.343 20.336 347.564 20.8587 346.636 21.2L350.924 30H345.772L341.644 21.888H337.26V30H332.652ZM337.26 17.552H343.372C344.055 17.552 344.594 17.4187 344.988 17.152C345.394 16.8853 345.676 16.5387 345.836 16.112C346.007 15.6747 346.092 15.2107 346.092 14.72C346.092 14.272 346.012 13.8347 345.852 13.408C345.703 12.9813 345.426 12.6293 345.02 12.352C344.626 12.0747 344.076 11.936 343.372 11.936H337.26V17.552Z" fill="black"/>
</svg>
